<?xml version="1.0" standalone="no"?>
<!DOCTYPE svg PUBLIC "-//W3C//DTD SVG 20010904//EN"
 "http://www.w3.org/TR/2001/REC-SVG-20010904/DTD/svg10.dtd">
<svg version="1.0" xmlns="http://www.w3.org/2000/svg"
 width="450.000000pt" height="450.000000pt" viewBox="0 0 450.000000 450.000000"
 preserveAspectRatio="xMidYMid meet">
<metadata>
Created by potrace 1.14, written by Peter Selinger 2001-2017
</metadata>
<g transform="translate(0.000000,450.000000) scale(0.100000,-0.100000)"
fill="#000000" stroke="none">
<path d="M1610 4193 c-48 -6 -59 -19 -11 -15 27 3 40 0 44 -11 9 -23 -18 -40
-49 -33 -15 4 -30 3 -33 -3 -4 -6 -22 -12 -41 -15 -19 -2 -47 -9 -62 -15 -18
-7 -28 -7 -28 -1 0 6 6 10 13 10 8 0 7 3 -3 10 -20 12 -6 23 31 23 23 0 27 2
14 9 -8 5 -29 6 -46 3 -22 -5 -28 -11 -24 -24 3 -12 0 -18 -10 -18 -10 0 -14
6 -10 15 4 10 0 12 -11 8 -8 -3 -21 -6 -27 -7 -7 0 -3 -4 8 -8 14 -6 8 -8 -22
-7 -32 0 -66 -12 -145 -52 -57 -29 -114 -61 -128 -73 -25 -20 -24 -20 18 1 23
11 47 18 52 15 6 -3 10 1 10 9 0 9 8 16 19 16 11 0 21 5 23 12 5 15 41 17 55
3 8 -9 -3 -20 -41 -43 -28 -17 -58 -32 -66 -34 -7 -2 -21 -11 -31 -20 -28 -26
-79 -50 -79 -37 0 7 -10 9 -25 7 -34 -7 -31 8 5 27 17 9 30 18 30 20 0 3 -18
-4 -40 -15 -25 -13 -38 -25 -34 -32 4 -7 3 -8 -4 -4 -7 4 -39 -11 -72 -35 -61
-43 -83 -80 -61 -102 14 -14 16 -12 213 112 165 105 221 133 350 176 135 45
254 65 397 66 75 1 105 4 86 9 -16 4 -23 8 -15 9 13 1 13 2 0 11 -8 5 -11 12
-7 17 10 9 150 4 157 -5 3 -4 25 -8 48 -9 24 -1 49 -7 56 -12 7 -6 15 -9 17
-6 3 2 6 -7 7 -20 1 -14 -3 -25 -8 -25 -6 0 -10 5 -10 11 0 6 -8 8 -17 5 -23
-7 -97 10 -101 23 -2 6 -8 11 -13 11 -6 0 -7 -4 -4 -10 4 -6 -7 -8 -27 -5 -72
11 9 -13 97 -30 121 -22 259 -69 374 -127 52 -26 97 -45 99 -43 6 6 -166 90
-243 118 -38 14 -86 32 -105 40 l-35 16 48 -4 c33 -3 45 0 41 7 -5 8 -1 9 10
5 10 -4 22 -7 27 -7 6 0 8 -3 6 -7 -3 -5 9 -9 27 -10 32 -1 183 -72 156 -73
-9 0 4 -17 30 -40 25 -22 45 -44 45 -49 0 -12 125 -101 143 -101 6 0 12 10 12
22 0 102 -363 284 -665 333 -83 14 -326 18 -415 8z m234 -18 c-4 -8 -9 -15
-13 -16 -39 -5 -61 -3 -58 5 2 5 16 11 32 13 16 3 32 6 34 9 8 8 10 4 5 -11z
m-945 -331 c-10 -12 -9 -13 5 -8 21 8 21 -5 -1 -22 -26 -19 -43 -17 -43 6 0
11 5 20 11 20 5 0 8 4 5 9 -4 5 0 11 6 14 21 7 30 -4 17 -19z"/>
<path d="M1505 4170 c-13 -5 -14 -9 -5 -9 8 0 24 4 35 9 13 5 14 9 5 9 -8 0
-24 -4 -35 -9z"/>
<path d="M1978 4163 c7 -3 16 -2 19 1 4 3 -2 6 -13 5 -11 0 -14 -3 -6 -6z"/>
<path d="M1885 3915 c-5 -2 -62 -15 -126 -31 -116 -27 -267 -90 -261 -109 5
-18 89 -6 252 35 87 22 172 40 187 40 15 0 35 5 43 10 11 7 2 8 -27 4 -32 -5
-43 -3 -43 7 0 8 -6 5 -15 -7 -14 -18 -14 -18 -8 4 3 12 12 22 19 22 8 0 14 4
14 10 0 5 35 11 78 13 l77 3 -90 1 c-49 1 -94 0 -100 -2z m-76 -61 c8 -3 11
-8 5 -13 -12 -11 -105 -33 -111 -27 -9 8 8 46 18 41 5 -4 9 -2 9 4 0 10 41 7
79 -5z m-232 -59 c0 -8 -8 -15 -18 -15 -22 0 -34 16 -17 23 24 10 35 7 35 -8z"/>
<path d="M2103 3898 c15 -5 27 -14 27 -19 0 -4 7 -5 17 -2 11 4 14 3 9 -5 -4
-7 -2 -10 6 -7 23 8 138 -72 149 -104 6 -16 19 -31 29 -34 11 -3 18 -13 17
-24 -1 -17 -16 -8 -92 49 -88 67 -182 109 -239 107 -11 0 2 -6 29 -13 74 -18
158 -67 270 -157 103 -83 131 -100 153 -92 24 10 11 47 -30 86 -103 98 -310
229 -358 226 -8 0 -3 -5 13 -11z"/>
<path d="M2804 3861 c-80 -13 -182 -92 -245 -190 -43 -67 -39 -78 37 -112 36
-16 86 -49 111 -72 l45 -41 -22 37 c-12 20 -20 37 -17 37 3 0 13 3 23 7 12 4
15 3 10 -5 -4 -7 -1 -12 8 -12 9 0 23 -12 33 -27 10 -16 20 -30 24 -33 12 -10
51 -94 54 -117 1 -12 -3 -27 -9 -32 -8 -7 -22 10 -45 55 -50 96 -46 73 5 -31
28 -57 48 -116 55 -160 14 -84 14 -357 -1 -481 -15 -133 -12 -314 6 -394 16
-72 33 -96 60 -86 14 6 16 16 9 69 -11 87 -21 346 -14 341 3 -2 12 79 19 179
14 205 3 363 -31 472 -41 132 -150 284 -233 327 -26 14 -61 22 -93 22 -29 1
-53 4 -53 8 0 4 12 15 28 25 15 9 53 37 84 61 95 71 137 85 258 86 95 1 111
-2 164 -26 32 -16 79 -43 105 -62 63 -46 87 -57 105 -50 41 16 -4 73 -108 138
-108 67 -232 90 -372 67z m269 -26 c9 -4 17 -11 17 -17 0 -5 5 -6 10 -3 15 9
60 -22 60 -41 0 -8 5 -12 10 -9 6 3 10 0 10 -9 0 -8 12 -23 27 -34 16 -11 25
-23 22 -26 -3 -3 -35 15 -72 39 -66 44 -152 75 -212 75 -16 0 -36 4 -44 9 -11
7 -5 11 22 16 21 4 39 11 42 15 5 7 74 -2 108 -15z m-227 3 c4 -7 4 -10 -1 -6
-4 4 -14 3 -22 -3 -13 -11 -19 2 -6 14 10 11 21 8 29 -5z m-139 -54 c-3 -3
-12 -4 -19 -1 -8 3 -5 6 6 6 11 1 17 -2 13 -5z m-18 -20 c6 4 11 3 11 -2 0 -4
-30 -30 -66 -56 -70 -50 -72 -45 -10 28 25 29 42 42 47 35 4 -6 12 -8 18 -5z
m176 -484 c3 -5 1 -10 -4 -10 -6 0 -11 5 -11 10 0 6 2 10 4 10 3 0 8 -4 11
-10z m54 -265 c1 16 3 17 10 5 11 -17 8 -156 -2 -166 -4 -4 -7 6 -7 22 0 22
-3 26 -10 14 -7 -10 -9 15 -9 80 1 68 4 85 9 60 4 -19 8 -26 9 -15z m-11 -596
c-10 -7 -10 -9 0 -9 7 0 12 -13 12 -31 0 -25 -3 -30 -16 -25 -13 5 -14 4 -6
-7 9 -10 8 -14 -3 -14 -8 0 -15 7 -15 16 0 9 -3 40 -6 69 -7 56 9 107 29 95 6
-3 7 -1 3 5 -4 7 -4 18 1 25 5 7 9 -15 11 -52 2 -45 -1 -67 -10 -72z m22 -99
c0 -11 -4 -20 -9 -20 -5 0 -7 9 -4 20 3 11 7 20 9 20 2 0 4 -9 4 -20z"/>
<path d="M3384 3747 c7 -18 39 -75 69 -126 59 -97 107 -210 134 -314 13 -53
15 -103 10 -332 -4 -148 -11 -326 -17 -395 -10 -118 -13 -253 -12 -576 0 -108
4 -144 15 -155 9 -10 15 -40 16 -94 1 -56 -2 -76 -9 -65 -8 13 -10 13 -10 -2
0 -10 4 -18 9 -18 5 0 7 -10 4 -22 -3 -18 -2 -19 5 -8 5 8 13 114 16 235 5
148 11 222 19 227 8 5 12 58 14 165 1 87 9 254 17 372 20 275 21 531 1 645
-18 105 -68 233 -130 332 -51 82 -126 164 -150 164 -13 0 -14 -4 -1 -33z m198
-247 c42 -72 77 -210 83 -335 l5 -110 -24 110 c-14 62 -47 165 -76 235 -56
135 -69 180 -51 180 6 0 8 8 6 18 -3 9 3 1 12 -18 10 -19 30 -55 45 -80z"/>
<path d="M809 3701 c-127 -80 -279 -387 -324 -653 -22 -128 -17 -306 8 -322
34 -20 44 13 50 167 4 78 9 156 12 172 5 23 4 26 -4 15 -13 -18 -13 -3 -1 25
6 14 9 15 10 5 1 -14 40 95 40 113 0 4 -8 3 -19 -2 -47 -26 -41 30 19 163 47
105 92 177 103 166 16 -16 4 -58 -47 -163 -31 -64 -56 -125 -55 -135 0 -19 -2
-25 52 105 41 97 86 166 167 258 39 44 60 76 58 89 -5 30 -19 29 -69 -3z
m-279 -913 c0 -13 -5 -30 -10 -38 -6 -10 -9 -4 -7 23 2 39 17 53 17 15z"/>
<path d="M3200 3617 c0 -7 21 -56 46 -108 26 -52 57 -121 70 -154 13 -33 23
-54 24 -47 0 7 -14 49 -31 92 -26 66 -30 82 -19 95 14 17 12 20 57 -63 34 -60
74 -208 76 -279 1 -35 7 -63 12 -63 6 0 3 -5 -5 -10 -12 -8 -12 -10 -1 -10 11
0 9 -5 -5 -21 -12 -14 -14 -19 -5 -17 8 2 17 -8 22 -22 11 -39 10 72 -2 155
-22 154 -99 343 -171 421 -40 44 -68 56 -68 31z"/>
<path d="M1643 3586 c-76 -25 -137 -62 -127 -77 3 -5 0 -8 -6 -7 -6 2 -19 -8
-28 -21 -20 -29 -31 -31 113 20 126 44 281 52 419 20 53 -12 101 -19 107 -15
7 4 9 3 6 -2 -3 -5 22 -20 56 -33 34 -13 110 -48 168 -78 l107 -55 10 -66 9
-67 2 50 c1 39 6 53 22 63 12 8 18 9 15 3 -4 -5 -2 -12 4 -16 5 -3 11 -23 11
-43 2 -34 2 -34 6 -7 7 42 -34 203 -66 261 -14 27 -35 50 -45 52 -18 4 -18 -1
-12 -61 l6 -66 -30 15 c-16 9 -35 12 -41 8 -7 -4 -9 -3 -6 3 12 20 -195 100
-329 128 -114 23 -283 19 -371 -9z m303 4 c16 0 22 -7 22 -25 0 -21 -2 -22
-15 -9 -17 16 -27 19 -18 4 4 -6 -25 -10 -80 -10 -88 0 -90 1 -60 38 7 8 29
11 70 8 33 -3 70 -5 81 -6z m-311 -30 c-3 -5 -10 -10 -16 -10 -5 0 -9 5 -9 10
0 6 7 10 16 10 8 0 12 -4 9 -10z m592 -62 c-3 -8 -6 -5 -6 6 -1 11 2 17 5 13
3 -3 4 -12 1 -19z m92 -17 c7 -5 9 -11 5 -14 -5 -3 -15 1 -22 9 -14 16 -5 18
17 5z m66 -41 c4 -6 -1 -7 -12 -4 -12 4 -10 0 7 -14 32 -26 19 -40 -15 -18
-21 14 -24 20 -14 32 13 16 25 18 34 4z m127 -68 c3 -10 0 -26 -7 -35 -17 -24
-26 -21 -16 6 4 12 6 28 4 35 -3 6 0 12 5 12 5 0 12 -8 14 -18z"/>
<path d="M862 3353 c-29 -11 -96 -202 -78 -220 3 -4 6 1 6 9 0 31 41 147 58
164 16 17 17 16 23 -12 6 -24 7 -21 8 19 0 26 0 47 -1 46 -2 0 -9 -3 -16 -6z"/>
<path d="M1072 3267 c-18 -21 -32 -100 -36 -209 -5 -101 -5 -102 4 -26 5 43
14 86 19 96 6 11 8 35 4 54 -3 21 -1 38 6 42 7 5 8 1 4 -10 -4 -12 -3 -15 5
-10 15 9 27 -37 17 -67 -9 -27 -16 -164 -17 -309 0 -103 -1 -108 -21 -108 -16
0 -18 -3 -10 -11 7 -7 18 -9 25 -6 20 7 46 524 29 556 -14 25 -15 25 -29 8z"/>
<path d="M2215 3263 c-63 -9 -153 -36 -230 -70 -102 -44 -244 -138 -241 -158
1 -9 6 -15 12 -14 5 0 8 6 6 12 -2 6 4 4 13 -3 14 -11 16 -11 13 1 -2 9 7 15
27 17 l30 4 -39 -31 c-54 -43 -36 -39 32 8 128 87 295 153 426 170 55 7 78 29
57 55 -13 16 -41 18 -106 9z m48 -34 c5 -18 2 -20 -19 -15 -13 4 -24 2 -24 -3
0 -5 -22 -14 -49 -20 -27 -6 -80 -22 -117 -37 -38 -14 -73 -27 -79 -28 -5 -1
-35 -18 -64 -39 -30 -20 -57 -34 -60 -32 -2 3 2 11 11 18 9 6 18 24 22 38 6
29 55 56 91 51 17 -2 17 -1 5 7 -13 9 -12 11 5 12 11 1 26 1 34 0 8 -2 10 2 5
10 -5 9 -2 10 9 6 10 -3 17 -2 17 3 0 14 118 49 166 49 34 1 43 -3 47 -20z
m-418 -149 c-3 -5 -12 -10 -18 -10 -7 0 -6 4 3 10 19 12 23 12 15 0z"/>
<path d="M2543 3170 c0 -25 2 -35 4 -22 2 12 2 32 0 45 -2 12 -4 2 -4 -23z"/>
<path d="M3361 3194 c0 -11 3 -14 6 -6 3 7 2 16 -1 19 -3 4 -6 -2 -5 -13z"/>
<path d="M836 3123 c-9 -43 -20 -118 -26 -168 -16 -153 -26 -198 -43 -189 -8
5 -8 2 1 -7 23 -24 39 13 46 104 4 45 16 138 27 205 11 68 19 126 16 128 -2 2
-11 -31 -21 -73z"/>
<path d="M2481 3184 c0 -11 3 -14 6 -6 3 7 2 16 -1 19 -3 4 -6 -2 -5 -13z"/>
<path d="M1265 3106 c-49 -117 -26 -395 32 -384 20 4 21 11 8 248 -9 168 -16
193 -40 136z m30 -290 c0 -46 -3 -79 -7 -73 -4 7 -8 22 -8 34 0 12 -5 25 -10
28 -6 4 -7 13 -2 23 5 9 8 24 7 32 -1 12 12 40 19 40 1 0 2 -38 1 -84z"/>
<path d="M766 3072 c-4 -29 -6 -56 -3 -59 8 -8 19 60 15 88 -3 15 -7 5 -12
-29z"/>
<path d="M2547 3087 c-6 -28 -12 -37 -23 -33 -9 3 -14 -1 -15 -12 -1 -9 -5 -3
-10 13 -5 18 -6 -10 -3 -75 2 -58 1 -110 -3 -115 -4 -6 -29 -16 -55 -23 -27
-6 -63 -19 -80 -27 -20 -9 -24 -12 -9 -9 19 5 23 3 18 -9 -3 -9 -1 -18 6 -20
14 -5 -83 -51 -128 -61 -47 -10 -109 -19 -125 -17 -76 6 -117 7 -125 2 -19
-11 -32 -9 -32 5 0 18 21 23 77 19 25 -2 72 5 105 15 33 9 86 25 118 35 91 26
63 26 -37 0 -48 -13 -127 -27 -175 -30 -47 -3 -101 -8 -118 -11 l-33 -5 -1 93
c-1 132 -10 149 -37 68 -44 -137 -85 -414 -97 -665 -7 -142 2 -169 12 -34 3
46 10 86 14 87 5 2 9 9 9 16 0 7 7 13 15 13 11 0 15 -12 15 -43 0 -24 -4 -45
-8 -48 -5 -3 -7 -19 -4 -36 2 -17 6 -29 8 -27 2 2 9 62 14 133 5 71 13 155 16
188 7 57 6 58 -15 47 -24 -13 -24 -11 -21 104 2 70 4 75 30 68 16 -4 20 -14
21 -47 l2 -41 6 40 6 40 116 -4 c154 -4 309 29 441 95 26 13 50 24 53 24 3 0
6 -120 7 -267 0 -163 4 -238 7 -192 5 50 12 82 23 92 13 14 16 35 13 119 -4
114 4 168 16 108 8 -46 9 258 0 375 -5 79 -7 85 -14 52z m1 -240 c2 -15 -4
-37 -12 -49 -15 -22 -16 -20 -16 31 0 38 4 51 13 49 6 -3 13 -17 15 -31z m-21
-349 c-3 -8 -6 -5 -6 6 -1 11 2 17 5 13 3 -3 4 -12 1 -19z"/>
<path d="M3381 3040 c0 -44 3 -60 9 -49 5 9 5 36 1 65 l-9 49 -1 -65z"/>
<path d="M1675 2998 c-112 -90 -175 -166 -175 -213 0 -14 3 -14 28 2 15 9 42
30 60 47 22 21 35 27 43 19 20 -20 27 -145 34 -603 3 -256 9 -473 12 -483 2
-10 16 -22 29 -27 21 -9 23 -14 19 -57 -5 -44 -3 -43 15 22 16 57 18 90 14
185 -5 98 -27 305 -34 305 -8 0 -7 75 1 80 6 5 5 12 -3 23 -11 13 -11 14 0 8
19 -11 15 170 -5 189 -9 10 -14 44 -16 110 -2 86 0 98 18 112 11 8 15 17 10
19 -6 2 -9 21 -7 42 4 43 -13 96 -28 87 -5 -3 -10 1 -10 10 0 9 4 13 10 10 6
-3 7 1 4 10 -4 9 1 24 10 34 16 18 16 19 1 17 -10 0 -22 7 -28 16 -10 14 -8
21 8 32 45 33 59 45 50 45 -5 0 -32 -18 -60 -41z m-125 -176 c0 -5 -7 -9 -15
-9 -8 0 -12 4 -9 9 3 4 9 8 15 8 5 0 9 -4 9 -8z m151 -817 c6 16 7 15 8 -8 0
-16 -3 -26 -8 -22 -6 3 -12 -19 -14 -52 -2 -32 -3 12 -3 97 0 129 1 139 5 60
3 -52 9 -86 12 -75z"/>
<path d="M752 2950 c0 -19 2 -27 5 -17 2 9 2 25 0 35 -3 9 -5 1 -5 -18z"/>
<path d="M1022 2898 c-2 -38 1 -46 13 -42 8 4 15 14 15 23 0 13 -2 14 -9 2 -7
-11 -11 -4 -14 25 -4 38 -4 38 -5 -8z"/>
<path d="M743 2860 c0 -25 2 -35 4 -22 2 12 2 32 0 45 -2 12 -4 2 -4 -23z"/>
<path d="M3383 2820 c0 -41 2 -58 4 -37 2 20 2 54 0 75 -2 20 -4 3 -4 -38z"/>
<path d="M3440 2808 c-1 -63 -30 -172 -48 -175 -8 -2 -12 13 -13 45 -1 28 -8
-8 -20 -93 -10 -77 -18 -149 -16 -160 1 -11 9 18 16 65 7 47 17 90 22 96 5 7
8 16 7 20 -2 5 2 10 7 12 6 1 12 -33 15 -80 l5 -83 13 98 c16 125 27 307 19
307 -4 0 -7 -24 -7 -52z"/>
<path d="M2282 2663 c-74 -36 -204 -274 -201 -367 1 -25 3 -23 9 14 16 94 93
247 144 289 15 12 56 23 56 15 0 -1 -22 -40 -50 -87 -72 -122 -62 -120 15 3
36 58 65 115 65 127 0 13 -1 23 -2 23 -2 0 -18 -8 -36 -17z"/>
<path d="M505 2580 c-27 -29 -65 -202 -67 -300 -2 -85 23 -206 41 -196 17 11
-4 -64 -41 -149 -88 -199 -99 -235 -101 -320 -2 -60 3 -91 17 -122 10 -23 23
-40 27 -37 5 3 6 -1 3 -9 -7 -19 66 -109 131 -160 120 -94 380 -206 510 -221
l50 -5 -47 11 c-55 12 -66 30 -13 21 25 -4 36 -2 40 9 4 10 15 13 31 10 20 -4
23 -7 12 -14 -9 -7 -2 -8 22 -4 51 9 62 26 17 26 -47 0 -226 42 -297 70 -30
12 -101 46 -157 77 -251 137 -325 284 -245 484 17 40 48 117 71 169 46 108 49
134 21 208 -27 70 -27 199 0 307 34 137 23 198 -25 145z m2 -57 c0 -10 -6 -27
-13 -38 -10 -14 -14 -15 -14 -5 1 43 26 84 27 43z m-81 -736 c8 3 14 0 14 -6
0 -6 -6 -10 -12 -8 -7 1 -12 -3 -11 -10 2 -6 -6 -11 -17 -10 -11 1 -20 8 -20
17 0 22 12 32 23 21 5 -5 16 -7 23 -4z m-21 -97 c-4 -12 -9 -19 -12 -17 -3 3
-2 15 2 27 4 12 9 19 12 17 3 -3 2 -15 -2 -27z m-6 -132 c18 -80 18 -80 -5
-84 -16 -3 -25 4 -33 24 -20 51 -23 82 -11 97 22 27 37 16 49 -37z m176 -254
c7 2 21 -4 30 -14 9 -10 27 -21 41 -24 13 -4 24 -11 24 -17 0 -6 6 -7 13 -3 6
4 9 4 5 -1 -4 -4 2 -21 14 -37 l20 -30 -63 33 c-80 40 -150 89 -143 100 3 5
14 4 25 -2 11 -6 27 -8 34 -5z m235 -125 c0 -5 3 -8 8 -8 23 4 42 -2 37 -12
-4 -6 2 -13 14 -16 12 -3 21 -12 21 -19 0 -18 2 -18 -67 8 -61 23 -110 51 -83
47 31 -3 51 1 45 11 -3 6 1 7 9 4 9 -3 16 -10 16 -15z"/>
<path d="M1862 2565 c0 -16 2 -22 5 -12 2 9 2 23 0 30 -3 6 -5 -1 -5 -18z"/>
<path d="M775 2530 c-28 -5 -69 -17 -90 -26 -39 -17 -39 -17 -15 -26 21 -7 20
-7 -7 -3 -32 4 -54 -9 -31 -19 7 -2 2 -4 -12 -3 -15 1 -25 -4 -27 -14 -3 -13
5 -14 59 -8 35 5 77 13 93 19 30 10 29 10 -7 6 -35 -4 -38 -3 -36 19 1 13 6
21 11 18 5 -3 13 0 17 7 5 7 41 14 92 17 95 6 144 -5 196 -44 41 -31 81 -108
65 -124 -13 -13 -37 7 -66 53 -22 35 -106 78 -149 77 -31 -1 -31 -2 9 -9 74
-15 125 -52 148 -107 15 -36 44 -44 65 -18 27 33 -53 148 -123 174 -37 14
-139 20 -192 11z"/>
<path d="M798 2463 c6 -2 18 -2 25 0 6 3 1 5 -13 5 -14 0 -19 -2 -12 -5z"/>
<path d="M3402 2420 c0 -19 2 -27 5 -17 2 9 2 25 0 35 -3 9 -5 1 -5 -18z"/>
<path d="M3476 2429 c-20 -74 -46 -668 -53 -1209 -5 -342 1 -520 18 -520 5 0
8 27 5 63 -2 38 -1 47 3 22 3 -22 9 -39 14 -37 19 6 26 -1 29 -31 2 -17 3 155
3 383 0 228 6 537 13 685 16 362 -2 750 -32 644z m22 -391 c-2 -159 -7 -292
-12 -295 -4 -3 -2 -9 5 -14 11 -7 10 -9 -3 -9 -10 0 -18 5 -18 11 0 5 -5 7
-11 3 -8 -4 -9 53 -3 207 4 118 8 234 9 259 4 137 5 140 20 134 14 -6 15 -44
13 -296z m-19 -395 c0 -52 -2 -63 -9 -45 -6 13 -8 33 -6 45 3 12 5 32 5 45 1
12 3 22 6 22 3 0 5 -30 4 -67z m1 -658 c0 -29 -4 -45 -12 -45 -9 0 -8 -4 2
-10 11 -7 11 -10 2 -10 -7 0 -11 -4 -8 -8 8 -13 -11 -35 -23 -28 -14 9 -14 45
0 102 15 60 39 59 39 -1z"/>
<path d="M840 2390 c-35 -69 -53 -175 -53 -320 -1 -148 10 -192 50 -198 17 -3
24 3 29 23 3 14 4 29 0 32 -3 4 -6 -1 -6 -10 0 -19 -15 -23 -26 -6 -4 8 -9 7
-16 -2 -7 -10 -8 -8 -5 9 3 12 2 22 -3 22 -10 0 -13 217 -3 233 4 6 8 25 9 40
1 15 10 34 20 42 11 8 15 15 9 15 -5 0 -4 4 3 8 7 5 10 16 6 25 -3 9 -10 15
-14 12 -11 -7 -3 41 11 67 5 10 14 18 20 18 6 0 7 5 4 10 -3 6 -2 10 3 10 18
0 22 -14 9 -34 -17 -27 -28 -68 -16 -60 5 3 9 0 9 -5 0 -6 -4 -11 -9 -11 -5 0
-7 -10 -3 -22 4 -17 10 -6 24 46 21 75 19 96 -11 96 -14 0 -27 -13 -41 -40z"/>
<path d="M2165 2407 c-10 -8 -15 -19 -11 -25 3 -6 2 -13 -4 -17 -5 -3 -10 -27
-9 -53 l0 -47 14 50 c7 28 18 62 24 78 12 31 11 32 -14 14z"/>
<path d="M3307 2227 c-50 -313 -58 -402 -58 -632 0 -121 5 -265 10 -320 6 -55
11 -128 11 -162 0 -35 3 -63 8 -63 4 0 5 35 4 77 -2 43 -1 75 2 72 3 -3 7 -36
8 -72 1 -37 5 -67 9 -67 5 0 6 -6 3 -14 -4 -11 0 -13 15 -9 18 5 21 1 21 -32
0 -42 -20 -44 -31 -4 -4 13 -8 20 -9 14 -1 -5 -5 -1 -10 10 -15 35 -11 -30 9
-155 31 -191 60 -280 91 -280 20 0 30 56 17 98 -7 23 -16 39 -21 35 -4 -4 -4
0 -1 8 3 9 -3 69 -14 135 -18 107 -49 449 -52 586 -1 29 -4 43 -6 31 -5 -26
-18 -31 -22 -8 -9 58 7 204 20 183 15 -23 9 115 -6 142 -8 14 -14 40 -15 58 0
23 -4 31 -12 26 -8 -5 -9 6 -5 41 4 26 7 56 7 67 0 12 4 16 12 12 6 -4 8 -3 5
3 -9 15 24 26 37 13 8 -8 16 22 28 102 15 104 15 113 0 124 -9 7 -21 10 -25 7
-5 -3 -6 5 -2 18 7 21 9 119 2 125 -1 1 -15 -75 -30 -169z m-1 -844 c-3 -21
-5 -40 -6 -42 -1 -11 -14 12 -17 30 -2 16 13 47 25 49 2 0 1 -17 -2 -37z m74
-613 c0 -5 -5 -10 -11 -10 -5 0 -7 5 -4 10 3 6 8 10 11 10 2 0 4 -4 4 -10z
m-10 -110 c0 -5 -4 -10 -10 -10 -5 0 -10 5 -10 10 0 6 5 10 10 10 6 0 10 -4
10 -10z"/>
<path d="M3391 2344 c0 -11 3 -14 6 -6 3 7 2 16 -1 19 -3 4 -6 -2 -5 -13z"/>
<path d="M2545 2290 c-3 -11 -6 -32 -5 -47 0 -16 2 -56 3 -90 3 -93 14 -62 20
55 5 95 -3 129 -18 82z"/>
<path d="M2206 2281 c-11 -12 -25 -21 -33 -21 -8 0 -11 -4 -8 -10 3 -5 1 -10
-6 -10 -8 0 -8 -4 1 -15 21 -25 -6 -17 -41 12 -30 26 -31 26 -20 4 14 -26 124
-81 162 -81 28 0 43 12 53 46 4 15 -3 31 -28 60 -19 21 -37 36 -41 32 -4 -4 7
-19 24 -33 32 -28 40 -62 19 -83 -20 -20 -38 -14 -38 13 0 14 5 25 10 25 16 0
12 27 -5 34 -9 3 -19 15 -23 26 l-8 21 -18 -20z"/>
<path d="M2495 2208 c-20 -61 -32 -695 -15 -868 l7 -75 2 65 c1 46 4 61 11 50
8 -12 10 -9 10 12 0 15 6 30 13 34 6 4 9 4 5 -1 -4 -4 -3 -15 4 -22 9 -11 9
-17 -3 -24 -10 -6 -10 -9 -1 -9 21 0 14 -122 -12 -220 -3 -8 -5 -24 -6 -35 -2
-17 -3 -16 -10 5 -7 23 -8 23 -9 4 -3 -65 49 -664 58 -664 3 0 4 23 3 50 -2
28 -1 57 2 66 10 27 38 -10 30 -41 -4 -17 -2 -25 7 -25 9 -1 8 -4 -3 -11 -12
-6 -18 -22 -18 -44 0 -19 -4 -36 -9 -39 -9 -6 -6 -61 5 -115 4 -20 7 -22 15
-10 7 12 9 11 9 -3 0 -10 4 -18 10 -18 5 0 7 -8 3 -18 -5 -14 -3 -14 11 3 17
20 17 20 13 -2 -3 -12 0 -24 7 -27 7 -3 7 -5 -2 -5 -8 -1 -10 -9 -6 -26 4 -15
2 -25 -5 -25 -6 0 -9 -13 -5 -32 4 -31 4 -32 -6 -8 -6 14 -10 37 -7 52 2 16 0
28 -3 28 -4 0 -12 15 -18 33 -10 30 -10 29 -5 -13 3 -25 16 -85 27 -135 l21
-90 38 -3 c20 -2 37 -1 37 1 0 2 -11 49 -24 103 -32 129 -61 342 -86 634 -37
428 -41 514 -43 836 -1 199 -6 322 -12 326 -6 5 -5 8 3 8 9 0 11 21 10 78 -2
69 -2 71 -5 20 -3 -42 -8 -58 -18 -58 -10 0 -15 10 -15 29 0 16 -4 31 -9 33
-6 2 -7 45 -3 106 7 98 6 117 -3 90z m61 -1273 c-2 -38 0 -65 5 -65 6 0 9 -20
8 -45 -3 -49 -19 -63 -19 -16 0 16 -7 34 -15 41 -9 8 -15 29 -15 56 0 24 6 49
15 58 8 8 15 19 15 25 0 6 2 11 5 11 3 0 4 -29 1 -65z m-9 -312 c-3 -10 -5 -4
-5 12 0 17 2 24 5 18 2 -7 2 -21 0 -30z"/>
<path d="M2766 2088 c-4 -57 -11 -148 -16 -203 -31 -313 -38 -628 -20 -830 26
-289 56 -554 75 -665 17 -96 117 -412 108 -340 -3 25 -14 64 -25 88 -23 53
-30 128 -12 143 10 8 15 4 19 -18 4 -15 20 -63 36 -106 17 -44 32 -95 33 -115
2 -20 9 -38 15 -40 16 -5 16 -4 -38 162 -59 182 -94 389 -133 786 -14 137 -17
568 -6 750 4 68 3 107 -2 95 -5 -11 -9 -14 -9 -7 -1 6 -8 12 -17 12 -13 0 -14
3 -4 15 8 9 11 38 8 80 -2 36 0 65 4 65 4 0 9 8 10 18 1 9 5 -23 8 -73 l6 -90
2 124 c2 122 -12 251 -28 251 -4 0 -10 -46 -14 -102z m1 -240 c-3 -8 -6 -5 -6
6 -1 11 2 17 5 13 3 -3 4 -12 1 -19z m13 -633 c0 -32 -19 -52 -21 -22 0 6 -2
22 -5 35 -3 15 1 22 11 22 10 0 15 -11 15 -35z m-33 -107 c-3 -8 -6 -5 -6 6
-1 11 2 17 5 13 3 -3 4 -12 1 -19z m20 -240 c-3 -7 -5 -2 -5 12 0 14 2 19 5
13 2 -7 2 -19 0 -25z m40 -60 c-3 -8 -6 -5 -6 6 -1 11 2 17 5 13 3 -3 4 -12 1
-19z m41 -345 c-2 -29 -6 -53 -11 -53 -4 0 -6 -4 -3 -8 2 -4 1 -14 -3 -21 -6
-8 -11 4 -15 34 -4 26 -5 49 -2 52 2 3 1 16 -4 29 -6 15 -6 24 0 24 6 0 10 8
10 18 1 15 2 15 15 -2 10 -13 14 -39 13 -73z"/>
<path d="M1813 2108 c3 -20 2 -40 -3 -44 -11 -11 -24 -102 -24 -172 -1 -28 -4
-52 -8 -52 -5 0 -8 -5 -8 -11 0 -5 4 -7 10 -4 6 4 8 -25 5 -82 -7 -111 -12
-126 -36 -120 -23 6 -26 -11 -3 -20 35 -13 43 18 59 212 23 276 24 314 12 322
-7 4 -8 -6 -4 -29z"/>
<path d="M3551 2095 c0 -35 1 -37 10 -17 6 15 5 30 -1 40 -7 13 -9 8 -9 -23z"/>
<path d="M3553 2005 c0 -22 2 -30 4 -17 2 12 2 30 0 40 -3 9 -5 -1 -4 -23z"/>
<path d="M853 1980 c0 -25 2 -35 4 -22 2 12 2 32 0 45 -2 12 -4 2 -4 -23z"/>
<path d="M3327 1958 c-2 -24 -7 -53 -10 -65 -3 -13 -2 -25 3 -28 9 -6 26 122
17 131 -3 3 -7 -14 -10 -38z"/>
<path d="M3536 1689 c-10 -52 -7 -244 5 -278 6 -17 18 -31 26 -31 13 0 13 2 0
15 -23 23 -30 87 -22 211 7 112 4 144 -9 83z"/>
<path d="M721 1466 c-15 -17 -6 -56 13 -56 23 0 48 26 44 46 -4 24 -40 30 -57
10z"/>
<path d="M1308 1087 c11 -13 10 -16 -3 -19 -13 -2 -14 -6 -3 -20 18 -24 165
-30 179 -7 22 35 -5 50 -103 57 -75 5 -82 4 -70 -11z m29 -43 c-3 -3 -12 -4
-19 -1 -8 3 -5 6 6 6 11 1 17 -2 13 -5z"/>
<path d="M1215 1060 c-3 -5 -12 -7 -20 -3 -8 3 -15 0 -15 -6 0 -14 69 -14 90
-1 8 5 12 10 8 11 -27 5 -35 4 -47 -5 -11 -8 -13 -8 -7 2 4 6 5 12 2 12 -3 0
-7 -4 -11 -10z"/>
<path d="M2965 1025 c-11 -69 2 -432 19 -540 32 -199 91 -463 101 -453 2 2 -4
35 -14 73 -17 68 -19 108 -7 169 7 37 16 46 16 16 0 -13 3 -21 6 -17 4 3 -3
50 -15 104 -28 132 -47 261 -72 488 -11 105 -21 195 -23 200 -2 6 -7 -12 -11
-40z m12 -147 c-3 -7 -5 -2 -5 12 0 14 2 19 5 13 2 -7 2 -19 0 -25z m11 -69
c-3 -8 -7 -3 -11 10 -4 17 -3 21 5 13 5 -5 8 -16 6 -23z m22 -141 c0 -23 -3
-29 -9 -19 -7 11 -9 11 -14 0 -4 -10 -6 -9 -6 3 -1 23 9 48 20 48 5 0 9 -15 9
-32z m6 -76 c1 -26 -1 -30 -13 -20 -8 6 -11 18 -8 26 3 9 0 19 -7 24 -9 6 -7
8 7 6 15 -2 20 -11 21 -36z m31 -334 c-3 -8 -6 -5 -6 6 -1 11 2 17 5 13 3 -3
4 -12 1 -19z"/>
<path d="M1760 1014 c0 -22 50 -85 63 -77 5 3 7 1 4 -4 -4 -6 0 -27 8 -47 10
-24 15 -70 15 -139 l0 -104 -48 -6 c-27 -3 -64 -13 -83 -21 -22 -11 -25 -14
-9 -10 14 4 47 9 74 11 38 4 47 2 44 -8 -7 -23 -127 -72 -173 -72 -8 0 -17 -7
-19 -14 -3 -8 -11 -11 -17 -7 -7 4 -9 3 -6 -3 4 -7 47 4 117 29 l110 40 20
-24 20 -23 20 24 c18 21 20 38 20 170 0 133 -2 151 -24 198 -34 71 -136 138
-136 87z m100 -114 c0 -5 3 -9 8 -9 25 4 29 -6 28 -68 -1 -38 1 -84 4 -103 4
-19 2 -48 -3 -64 -7 -20 -6 -30 3 -36 16 -10 6 -56 -15 -64 -12 -4 -15 3 -13
32 0 20 -2 47 -6 60 -5 13 -3 22 3 22 6 0 11 7 11 15 0 8 -4 15 -8 15 -5 0 -9
7 -9 15 0 8 4 12 9 9 4 -3 7 19 6 48 l-1 53 -6 -45 c-7 -44 -7 -44 -12 25 -3
39 -9 78 -14 88 -4 10 -3 17 4 17 6 0 11 -4 11 -10z"/>
<path d="M3441 670 c-2 -42 20 -194 29 -204 5 -5 7 6 4 25 -4 28 -2 31 6 16 6
-9 13 -25 15 -35 3 -15 54 -112 59 -112 1 0 -10 66 -23 148 -14 81 -26 140
-28 132 -9 -66 -15 -90 -24 -85 -5 4 -10 0 -10 -7 -1 -7 -7 23 -14 67 -7 44
-13 69 -14 55z"/>
<path d="M1650 590 c-8 -5 -10 -10 -5 -10 6 0 17 5 25 10 8 5 11 10 5 10 -5 0
-17 -5 -25 -10z"/>
<path d="M1543 534 c-20 -15 -33 -34 -32 -47 0 -22 0 -22 9 -1 4 11 22 33 40
47 40 34 26 35 -17 1z"/>
<path d="M1585 490 c-3 -6 1 -7 9 -4 18 7 21 14 7 14 -6 0 -13 -4 -16 -10z"/>
<path d="M3564 456 c-7 -18 6 -60 51 -169 20 -48 47 -129 60 -180 13 -51 24
-79 25 -64 0 16 4 26 9 23 5 -3 11 3 14 14 3 10 0 21 -6 23 -6 2 -4 6 5 10 13
5 16 0 16 -24 -1 -17 -7 -33 -15 -36 -7 -3 -13 -16 -13 -29 0 -20 5 -24 30
-24 26 0 30 3 25 22 -32 147 -51 214 -86 299 -23 55 -46 102 -52 106 -7 4 -8
0 -2 -13 14 -34 17 -71 6 -78 -13 -9 -34 41 -24 57 11 18 11 51 1 65 -14 16
-37 15 -44 -2z m166 -326 c0 -5 -5 -10 -11 -10 -5 0 -7 5 -4 10 3 6 8 10 11
10 2 0 4 -4 4 -10z m-31 -27 c0 -25 -1 -26 -9 -8 -12 27 -12 35 0 35 6 0 10
-12 9 -27z"/>
<path d="M1514 423 c4 -23 -1 -41 -20 -68 -42 -62 -90 -166 -118 -253 -14 -46
-26 -87 -26 -93 0 -15 70 -11 76 5 3 7 6 30 7 49 1 19 5 33 10 30 4 -2 7 2 7
9 0 19 92 208 101 208 5 0 24 -13 42 -30 51 -45 152 -88 236 -101 119 -18 301
13 568 97 110 35 114 37 111 63 -3 22 -8 26 -38 28 -27 1 -30 0 -12 -5 13 -4
23 -10 23 -14 -1 -5 -1 -12 -1 -16 0 -11 -60 -37 -112 -51 -23 -6 -38 -6 -38
0 0 5 -12 9 -27 9 -27 1 -28 1 -8 17 19 15 19 15 -5 9 -203 -56 -373 -81 -451
-66 -29 6 -54 8 -56 6 -7 -6 38 -15 136 -26 104 -12 122 -18 96 -33 -32 -17
-194 -10 -265 13 -78 24 -146 69 -142 93 2 9 -2 17 -8 17 -5 0 -10 12 -9 28
l1 27 8 -25 c4 -14 8 -22 9 -17 1 4 19 -4 41 -18 54 -34 62 -32 12 5 -44 32
-62 57 -62 88 0 31 -23 44 -48 27 -19 -14 -22 -14 -32 2 -9 15 -10 13 -6 -14z
m12 -100 c-3 -4 -6 -1 -6 6 0 7 -5 9 -10 6 -8 -5 -7 -11 0 -20 7 -8 8 -20 4
-26 -13 -21 -25 30 -13 53 11 20 12 20 21 4 5 -10 7 -20 4 -23z m-106 -223 c0
-5 -2 -10 -4 -10 -3 0 -8 5 -11 10 -3 6 -1 10 4 10 6 0 11 -4 11 -10z"/>
<path d="M2551 434 c0 -11 3 -14 6 -6 3 7 2 16 -1 19 -3 4 -6 -2 -5 -13z"/>
<path d="M3472 430 c0 -14 2 -19 5 -12 2 6 2 18 0 25 -3 6 -5 1 -5 -13z"/>
<path d="M3491 355 c-1 -18 36 -150 70 -253 44 -133 64 -138 56 -14 -7 92 -45
244 -62 243 -5 -1 -10 -7 -10 -14 -1 -6 -6 -21 -13 -32 -8 -15 -12 -16 -13 -5
-3 26 -6 34 -17 60 -6 14 -11 21 -11 15z m119 -256 c0 -3 -7 -6 -15 -6 -10 0
-15 10 -15 31 l1 31 14 -25 c8 -14 14 -28 15 -31z"/>
<path d="M1717 279 c7 -7 15 -10 18 -7 3 3 -2 9 -12 12 -14 6 -15 5 -6 -5z"/>
<path d="M3096 225 c8 -37 14 -45 14 -19 0 10 -5 26 -10 34 -8 11 -9 7 -4 -15z"/>
<path d="M3111 164 c0 -11 3 -14 6 -6 3 7 2 16 -1 19 -3 4 -6 -2 -5 -13z"/>
<path d="M3136 38 c-9 -34 -8 -38 9 -38 12 0 14 7 9 28 -9 36 -10 37 -18 10z"/>
</g>
</svg>
